<svg xmlns="http://www.w3.org/2000/svg" width="42.907" height="29.41" viewBox="0 0 42.907 29.41">
  <defs>
    <style>
      .cls-1 {
        fill: #ff5964;
        fill-rule: evenodd;
      }
    </style>
  </defs>
  <path id="_" data-name="“" class="cls-1" d="M393.946,2607.64a12.064,12.064,0,0,1,5.861-1.85v-6.2a22.089,22.089,0,0,0-13.669,6.03,16.434,16.434,0,0,0-5.357,12.14,11.419,11.419,0,0,0,2.907,8.14,9.885,9.885,0,0,0,7.567,3.1,9.145,9.145,0,0,0,6.679-2.6,8.829,8.829,0,0,0,2.642-6.58,8.049,8.049,0,0,0-2.162-5.84,7.588,7.588,0,0,0-5.718-2.23c-0.352.03-.9,0.1-1.633,0.19a0.558,0.558,0,0,0-.24.05A8.416,8.416,0,0,1,393.946,2607.64Zm23.206,0a12.071,12.071,0,0,1,5.862-1.85v-6.2a22.194,22.194,0,0,0-13.693,6.03,16.4,16.4,0,0,0-5.382,12.14,11.4,11.4,0,0,0,2.931,8.12,9.943,9.943,0,0,0,7.592,3.12,9.037,9.037,0,0,0,6.63-2.57,8.9,8.9,0,0,0,2.6-6.61,8.158,8.158,0,0,0-2.114-5.84,7.374,7.374,0,0,0-5.622-2.23c-0.384.03-.929,0.1-1.633,0.19a0.392,0.392,0,0,0-.241.05A8.176,8.176,0,0,1,417.152,2607.64Z" transform="translate(-380.781 -2599.59)"/>
</svg>
