<svg xmlns="http://www.w3.org/2000/svg" width="71.531" height="49.03" viewBox="0 0 71.531 49.03">
  <defs>
    <style>
      .cls-1 {
        fill: #272334;
        fill-rule: evenodd;
        opacity: 0.3;
      }
    </style>
  </defs>
  <path id="_" data-name="“" class="cls-1" d="M180.42,4503.2q3.6-2.52,9.769-3.08v-10.33q-13.854,1.365-22.782,10.05t-8.928,20.22q0,8.415,4.844,13.57a16.481,16.481,0,0,0,12.613,5.17,15.21,15.21,0,0,0,11.13-4.33,14.7,14.7,0,0,0,4.405-10.97,13.379,13.379,0,0,0-3.6-9.72,12.631,12.631,0,0,0-9.529-3.73c-0.588.05-1.5,0.16-2.723,0.32a0.936,0.936,0,0,0-.4.08A14.063,14.063,0,0,1,180.42,4503.2Zm38.678,0q3.6-2.52,9.769-3.08v-10.33q-13.854,1.365-22.822,10.05t-8.969,20.22q0,8.325,4.885,13.53a16.532,16.532,0,0,0,12.652,5.21,15.061,15.061,0,0,0,11.051-4.28,14.849,14.849,0,0,0,4.324-11.02,13.559,13.559,0,0,0-3.523-9.72,12.274,12.274,0,0,0-9.369-3.73c-0.641.05-1.549,0.16-2.723,0.32a0.652,0.652,0,0,0-.4.08A13.643,13.643,0,0,1,219.1,4503.2Z" transform="translate(-158.469 -4489.78)"/>
</svg>
